<svg width="193" height="193" viewBox="0 0 193 193" fill="none" xmlns="http://www.w3.org/2000/svg">
<circle cx="96.5" cy="96.5" r="96.5" fill="#FAFAFA"/>
<mask id="mask0_396_293" style="mask-type:alpha" maskUnits="userSpaceOnUse" x="0" y="0" width="193" height="193">
<rect width="193" height="193" fill="#D9D9D9"/>
</mask>
<g mask="url(#mask0_396_293)">
<path d="M85.2409 133.492L141.935 76.798L130.676 65.5397L85.2409 110.975L62.3221 88.0564L51.0638 99.3147L85.2409 133.492ZM96.4992 176.917C85.3749 176.917 74.9207 174.806 65.1367 170.584C55.3527 166.362 46.8419 160.632 39.6044 153.395C32.3669 146.157 26.6372 137.647 22.4153 127.863C18.1935 118.079 16.0825 107.624 16.0825 96.5001C16.0825 85.3758 18.1935 74.9216 22.4153 65.1376C26.6372 55.3536 32.3669 46.8428 39.6044 39.6053C46.8419 32.3678 55.3527 26.6381 65.1367 22.4162C74.9207 18.1944 85.3749 16.0834 96.4992 16.0834C107.623 16.0834 118.078 18.1944 127.862 22.4162C137.646 26.6381 146.156 32.3678 153.394 39.6053C160.631 46.8428 166.361 55.3536 170.583 65.1376C174.805 74.9216 176.916 85.3758 176.916 96.5001C176.916 107.624 174.805 118.079 170.583 127.863C166.361 137.647 160.631 146.157 153.394 153.395C146.156 160.632 137.646 166.362 127.862 170.584C118.078 174.806 107.623 176.917 96.4992 176.917Z" fill="#9AB55E"/>
</g>
</svg>
