<svg width="58" height="79" viewBox="0 0 58 79" fill="none" xmlns="http://www.w3.org/2000/svg">
<path d="M29.1323 63.3303C43.4254 63.3303 55.0127 66.6884 55.0132 70.8312C55.0132 74.9742 43.4256 78.3332 29.1323 78.3332C14.8392 78.3331 3.25244 74.9742 3.25244 70.8312C3.2529 66.6884 14.8395 63.3303 29.1323 63.3303ZM29.1333 68.2062C24.1622 68.2062 20.1321 69.3814 20.1313 70.8312C20.1313 72.2813 24.1617 73.4572 29.1333 73.4572C34.1047 73.4571 38.1343 72.2812 38.1343 70.8312C38.1335 69.3814 34.1042 68.2063 29.1333 68.2062Z" fill="#76B5A180" fill-opacity="0.5"/>
<ellipse cx="29" cy="27.5" rx="24" ry="23.5" fill="#FAFAFA"/>
<path d="M29.1328 0C44.7952 6.39587e-05 57.4922 12.697 57.4922 28.3594C57.4921 44.0218 29.1328 71.1133 29.1328 71.1133C29.1328 71.1133 0.773559 44.0218 0.773438 28.3594C0.773438 12.697 13.4704 0 29.1328 0ZM29.1328 6.875C17.742 6.875 8.50781 16.1092 8.50781 27.5C8.50786 38.8908 17.742 48.125 29.1328 48.125C40.5235 48.1249 49.7578 38.8907 49.7578 27.5C49.7578 16.1092 40.5235 6.87512 29.1328 6.875Z" fill="#4C8F79"/>
</svg>
