<?xml version="1.0" standalone="no"?>
<!DOCTYPE svg PUBLIC "-//W3C//DTD SVG 20010904//EN"
 "http://www.w3.org/TR/2001/REC-SVG-20010904/DTD/svg10.dtd">
<svg version="1.0" xmlns="http://www.w3.org/2000/svg"
 width="54.000000pt" height="62.000000pt" viewBox="7.0000 10.00 45.000000 35.000000"
 preserveAspectRatio="xMidYMid meet">

<g transform="translate(0.000000,62.000000) scale(0.100000,-0.100000)"
fill="#9E9E9E" stroke="none">
<path d="M82 522 c-9 -7 -12 -57 -10 -218 3 -178 5 -209 18 -209 12 0 16 16
18 72 l3 73 177 2 177 3 3 134 c2 101 -1 136 -10 143 -17 10 -359 10 -376 0z
m78 -57 c0 -21 5 -25 30 -25 25 0 30 4 30 25 0 20 5 25 25 25 20 0 25 -5 25
-25 0 -20 5 -25 25 -25 20 0 25 5 25 25 0 21 5 25 30 25 25 0 30 -4 30 -25 0
-20 5 -25 25 -25 21 0 25 -5 25 -30 0 -25 -4 -30 -25 -30 -20 0 -25 -5 -25
-25 0 -20 5 -25 25 -25 21 0 25 -5 25 -30 0 -25 -4 -30 -25 -30 -21 0 -25 5
-25 30 0 27 -3 30 -30 30 -27 0 -30 -3 -30 -30 0 -25 -4 -30 -25 -30 -21 0
-25 5 -25 30 0 25 -4 30 -24 30 -19 0 -25 -6 -28 -27 -2 -22 -9 -29 -30 -31
-25 -3 -28 0 -28 27 0 26 -4 31 -25 31 -20 0 -25 5 -25 25 0 20 5 25 25 25 21
0 25 5 25 30 0 25 -4 30 -25 30 -20 0 -25 5 -25 25 0 20 5 25 25 25 20 0 25
-5 25 -25z"/>
<path d="M220 410 c0 -27 -3 -30 -30 -30 -25 0 -30 -4 -30 -25 0 -21 5 -25 30
-25 25 0 30 4 30 25 0 20 5 25 25 25 20 0 25 -5 25 -25 0 -20 5 -25 25 -25 20
0 25 5 25 25 0 21 5 25 30 25 27 0 30 3 30 30 0 27 -3 30 -30 30 -27 0 -30 -3
-30 -30 0 -25 -4 -30 -25 -30 -21 0 -25 5 -25 30 0 25 -4 30 -25 30 -21 0 -25
-5 -25 -30z"/>
</g>
</svg>
