<svg xmlns="http://www.w3.org/2000/svg" version="1.1" xmlns:xlink="http://www.w3.org/1999/xlink" width="512" height="512" x="0" y="0" viewBox="0 0 32 32" style="enable-background:new 0 0 512 512" xml:space="preserve" fill-rule="evenodd" class=""><g><path d="M2.586 22.715C1.571 20.695 1 18.413 1 16s.571-4.695 1.586-6.715C5.051 4.373 10.135 1 16 1s10.949 3.373 13.414 8.285C30.429 11.305 31 13.587 31 16s-.571 4.695-1.586 6.715C26.949 27.627 21.865 31 16 31S5.051 27.627 2.586 22.715zm1.4-11.688C3.351 12.559 3 14.239 3 16s.351 3.441.986 4.973c1.633-.633 3.558-1.141 5.683-1.483-.11-1.118-.169-2.287-.169-3.49s.059-2.372.169-3.49c-2.125-.342-4.05-.85-5.683-1.483zm23.115-1.791a13.041 13.041 0 0 0-7.376-5.693c.139.216.274.445.404.687.853 1.593 1.535 3.769 1.945 6.298 1.868-.303 3.569-.744 5.027-1.292zM12.275 3.543a13.041 13.041 0 0 0-7.376 5.693c1.458.549 3.159.989 5.027 1.292.41-2.529 1.092-4.705 1.945-6.298.13-.242.265-.471.404-.687zm15.739 17.43C28.649 19.441 29 17.761 29 16s-.351-3.441-.986-4.973c-1.633.633-3.558 1.141-5.683 1.483.11 1.118.169 2.287.169 3.49s-.059 2.372-.169 3.49c2.125.342 4.05.85 5.683 1.483zM4.899 22.764a13.041 13.041 0 0 0 7.376 5.693 10.113 10.113 0 0 1-.404-.687c-.853-1.593-1.535-3.769-1.945-6.298-1.868.303-3.569.744-5.027 1.292zm14.826 5.693a13.041 13.041 0 0 0 7.376-5.693c-1.458-.548-3.159-.989-5.027-1.292-.41 2.529-1.092 4.705-1.945 6.298-.13.242-.265.471-.404.687zM16 3c-.385 0-.745.183-1.091.477-.464.394-.888.975-1.275 1.698-.764 1.426-1.364 3.365-1.73 5.616 1.31.137 2.682.209 4.096.209s2.786-.073 4.096-.209c-.366-2.251-.966-4.19-1.73-5.616-.387-.723-.811-1.304-1.275-1.698C16.745 3.183 16.385 3 16 3zm0 26c.385 0 .745-.183 1.091-.477.464-.394.888-.975 1.275-1.698.764-1.426 1.364-3.365 1.73-5.616C18.786 21.073 17.414 21 16 21s-2.786.073-4.096.209c.366 2.251.966 4.19 1.73 5.616.387.723.811 1.304 1.275 1.698.346.294.706.477 1.091.477zm4.35-9.773c.098-1.034.15-2.115.15-3.227s-.052-2.193-.15-3.227c-1.391.148-2.849.227-4.35.227s-2.959-.079-4.35-.227c-.098 1.034-.15 2.115-.15 3.227s.052 2.193.15 3.227C13.041 19.079 14.499 19 16 19s2.959.079 4.35.227z" fill="#4c8f79" opacity="1" data-original="#000000" class=""></path></g></svg>