<svg width="57" height="79" viewBox="0 0 57 79" fill="none" xmlns="http://www.w3.org/2000/svg">
<path d="M28.3589 63.3303C42.6519 63.3303 54.2393 66.6884 54.2397 70.8312C54.2397 74.9742 42.6522 78.3332 28.3589 78.3332C14.0658 78.3331 2.479 74.9742 2.479 70.8312C2.47946 66.6884 14.0661 63.3303 28.3589 63.3303ZM28.3599 68.2062C23.3887 68.2062 19.3587 69.3814 19.3579 70.8312C19.3579 72.2813 23.3883 73.4572 28.3599 73.4572C33.3312 73.4571 37.3608 72.2812 37.3608 70.8312C37.3601 69.3814 33.3308 68.2063 28.3599 68.2062Z" fill="#D93B3A" fill-opacity="0.5"/>
<ellipse cx="28.2266" cy="27.5" rx="24" ry="23.5" fill="#FAFAFA"/>
<path d="M28.3594 0C44.0217 6.39587e-05 56.7188 12.697 56.7188 28.3594C56.7186 44.0218 28.3594 71.1133 28.3594 71.1133C28.3594 71.1133 0.000121074 44.0218 0 28.3594C0 12.697 12.697 0 28.3594 0ZM28.3594 6.875C16.9685 6.875 7.73438 16.1092 7.73438 27.5C7.73443 38.8908 16.9686 48.125 28.3594 48.125C39.7501 48.1249 48.9843 38.8907 48.9844 27.5C48.9844 16.1092 39.7501 6.87512 28.3594 6.875Z" fill="#D93B3A"/>
</svg>
