<svg width="57" height="79" viewBox="0 0 57 79" fill="none" xmlns="http://www.w3.org/2000/svg">
<path d="M28.3589 63.3303C42.6519 63.3303 54.2393 66.6884 54.2397 70.8312C54.2397 74.9742 42.6522 78.3332 28.3589 78.3332C14.0658 78.3331 2.479 74.9742 2.479 70.8312C2.47946 66.6884 14.0661 63.3303 28.3589 63.3303ZM28.3599 68.2062C23.3887 68.2062 19.3587 69.3814 19.3579 70.8312C19.3579 72.2813 23.3883 73.4572 28.3599 73.4572C33.3312 73.4571 37.3608 72.2812 37.3608 70.8312C37.3601 69.3814 33.3308 68.2063 28.3599 68.2062Z" fill="#F5A0A0" fill-opacity="0.5"/>
<ellipse cx="28" cy="27.5" rx="24" ry="23.5" fill="#FAFAFA"/>
<path d="M28.3594 0C44.0217 6.39587e-05 56.7188 12.697 56.7188 28.3594C56.7186 44.0218 28.3594 71.1133 28.3594 71.1133C28.3594 71.1133 0.000121074 44.0218 0 28.3594C0 12.697 12.697 0 28.3594 0ZM28.3594 6.875C16.9685 6.875 7.73438 16.1092 7.73438 27.5C7.73443 38.8908 16.9686 48.125 28.3594 48.125C39.7501 48.1249 48.9843 38.8907 48.9844 27.5C48.9844 16.1092 39.7501 6.87512 28.3594 6.875Z" fill="#F5A0A0"/>
<path d="M33.8437 16C36.2048 16 38.1824 16.8736 39.7767 18.6208C41.3709 20.3681 42.1675 22.4458 42.1666 24.8542C42.1666 25.2792 42.143 25.6985 42.0958 26.1122C42.0485 26.5258 41.9659 26.9329 41.8478 27.3333H32.9937L30.5853 23.7208C30.4673 23.5319 30.302 23.3785 30.0895 23.2604C29.877 23.1424 29.6527 23.0833 29.4166 23.0833C29.1096 23.0833 28.8324 23.1778 28.585 23.3667C28.3376 23.5556 28.1661 23.7917 28.0708 24.075L26.1583 29.8125L24.9187 27.9708C24.8006 27.7819 24.6353 27.6285 24.4228 27.5104C24.2103 27.3924 23.986 27.3333 23.7499 27.3333H14.152C14.0339 26.9319 13.9513 26.5249 13.9041 26.1122C13.8569 25.6994 13.8333 25.2919 13.8333 24.8896C13.8333 22.4576 14.6242 20.3681 16.2062 18.6208C17.7881 16.8736 19.7596 16 22.1208 16C23.2541 16 24.3227 16.2243 25.3267 16.6729C26.3306 17.1215 27.2217 17.7472 27.9999 18.55C28.7555 17.7472 29.6352 17.1215 30.6392 16.6729C31.6431 16.2243 32.7113 16 33.8437 16ZM27.9999 41.5C27.5749 41.5 27.1679 41.4235 26.7788 41.2705C26.3896 41.1175 26.0411 40.8871 25.7333 40.5792L16.2416 31.0521C16.0999 30.9104 15.9701 30.7687 15.852 30.6271C15.7339 30.4854 15.6159 30.3319 15.4978 30.1667H22.9708L25.3791 33.7792C25.4971 33.9681 25.6624 34.1215 25.8749 34.2396C26.0874 34.3576 26.3117 34.4167 26.5478 34.4167C26.8548 34.4167 27.1381 34.3222 27.3978 34.1333C27.6576 33.9444 27.8346 33.7083 27.9291 33.425L29.8416 27.6875L31.0458 29.5292C31.1874 29.7181 31.3645 29.8715 31.577 29.9896C31.7895 30.1076 32.0138 30.1667 32.2499 30.1667H40.4666L40.1124 30.5917L39.7583 31.0167L30.2312 40.5792C29.9242 40.8861 29.5819 41.1166 29.2041 41.2705C28.8263 41.4244 28.4249 41.5009 27.9999 41.5Z" fill="#F5A0A0"/>
</svg>
