<svg width="38" height="37" viewBox="0 0 38 37" fill="none" xmlns="http://www.w3.org/2000/svg">
<path d="M18.8335 36.528C16.3469 36.528 13.9968 36.0504 11.7831 35.0951C9.56939 34.1399 7.63621 32.836 5.98353 31.1833C4.33085 29.5306 3.0269 27.5974 2.07168 25.3837C1.11646 23.1701 0.638855 20.8199 0.638855 18.3333C0.638855 15.8164 1.11646 13.4587 2.07168 11.2601C3.0269 9.06163 4.33085 7.13603 5.98353 5.48335C7.63621 3.83067 9.56939 2.52672 11.7831 1.5715C13.9968 0.616281 16.3469 0.138672 18.8335 0.138672C21.3504 0.138672 23.7082 0.616281 25.9067 1.5715C28.1052 2.52672 30.0308 3.83067 31.6835 5.48335C33.3362 7.13603 34.6401 9.06163 35.5953 11.2601C36.5505 13.4587 37.0281 15.8164 37.0281 18.3333C37.0281 20.8199 36.5505 23.1701 35.5953 25.3837C34.6401 27.5974 33.3362 29.5306 31.6835 31.1833C30.0308 32.836 28.1052 34.1399 25.9067 35.0951C23.7082 36.0504 21.3504 36.528 18.8335 36.528ZM18.8335 32.7981C19.6219 31.7064 20.3042 30.5692 20.8804 29.3866C21.4566 28.2039 21.9266 26.9455 22.2905 25.6112H15.3765C15.7404 26.9455 16.2104 28.2039 16.7866 29.3866C17.3628 30.5692 18.0451 31.7064 18.8335 32.7981ZM14.1029 32.0703C13.5571 31.0696 13.0794 30.031 12.6701 28.9544C12.2607 27.8779 11.9195 26.7635 11.6466 25.6112H6.2792C7.1586 27.1274 8.25786 28.4465 9.57697 29.5685C10.8961 30.6905 12.4047 31.5244 14.1029 32.0703ZM23.5641 32.0703C25.2623 31.5244 26.7709 30.6905 28.09 29.5685C29.4091 28.4465 30.5084 27.1274 31.3878 25.6112H26.0204C25.7475 26.7635 25.4063 27.8779 24.9969 28.9544C24.5876 30.031 24.11 31.0696 23.5641 32.0703ZM4.73265 21.9722H10.9188C10.8279 21.3658 10.7596 20.7669 10.7141 20.1755C10.6687 19.5842 10.6459 18.9701 10.6459 18.3333C10.6459 17.6965 10.6687 17.0824 10.7141 16.4911C10.7596 15.8998 10.8279 15.3009 10.9188 14.6944H4.73265C4.58103 15.3009 4.46731 15.8998 4.3915 16.4911C4.31569 17.0824 4.27778 17.6965 4.27778 18.3333C4.27778 18.9701 4.31569 19.5842 4.3915 20.1755C4.46731 20.7669 4.58103 21.3658 4.73265 21.9722ZM14.5578 21.9722H23.1092C23.2002 21.3658 23.2684 20.7669 23.3139 20.1755C23.3594 19.5842 23.3822 18.9701 23.3822 18.3333C23.3822 17.6965 23.3594 17.0824 23.3139 16.4911C23.2684 15.8998 23.2002 15.3009 23.1092 14.6944H14.5578C14.4668 15.3009 14.3986 15.8998 14.3531 16.4911C14.3076 17.0824 14.2848 17.6965 14.2848 18.3333C14.2848 18.9701 14.3076 19.5842 14.3531 20.1755C14.3986 20.7669 14.4668 21.3658 14.5578 21.9722ZM26.7482 21.9722H32.9344C33.086 21.3658 33.1997 20.7669 33.2755 20.1755C33.3513 19.5842 33.3892 18.9701 33.3892 18.3333C33.3892 17.6965 33.3513 17.0824 33.2755 16.4911C33.1997 15.8998 33.086 15.3009 32.9344 14.6944H26.7482C26.8391 15.3009 26.9074 15.8998 26.9529 16.4911C26.9984 17.0824 27.0211 17.6965 27.0211 18.3333C27.0211 18.9701 26.9984 19.5842 26.9529 20.1755C26.9074 20.7669 26.8391 21.3658 26.7482 21.9722ZM26.0204 11.0555H31.3878C30.5084 9.53924 29.4091 8.22013 28.09 7.09812C26.7709 5.97612 25.2623 5.1422 23.5641 4.59636C24.11 5.59707 24.5876 6.63568 24.9969 7.71219C25.4063 8.78871 25.7475 9.90313 26.0204 11.0555ZM15.3765 11.0555H22.2905C21.9266 9.72119 21.4566 8.46272 20.8804 7.28007C20.3042 6.09742 19.6219 4.96025 18.8335 3.86857C18.0451 4.96025 17.3628 6.09742 16.7866 7.28007C16.2104 8.46272 15.7404 9.72119 15.3765 11.0555ZM6.2792 11.0555H11.6466C11.9195 9.90313 12.2607 8.78871 12.6701 7.71219C13.0794 6.63568 13.5571 5.59707 14.1029 4.59636C12.4047 5.1422 10.8961 5.97612 9.57697 7.09812C8.25786 8.22013 7.1586 9.53924 6.2792 11.0555Z" fill="#9AB55E"/>
</svg>
